<svg xmlns="http://www.w3.org/2000/svg" xmlns:xlink="http://www.w3.org/1999/xlink" width="66" height="66" viewBox="0 0 66 66"><defs><path id="a" d="M.048.043h59.694v65.363H.048z"/></defs><g fill="none" fill-rule="evenodd"><g transform="translate(6.201)"><mask id="b" fill="#fff"><use xlink:href="#a"/></mask><path fill="#FFF" d="M59.742 32.7c-.035.604-.044 1.21-.112 1.811-.17 1.506-.344 3.013-.562 4.513-.086.594-.267 1.18-.454 1.753-.273.83-.432 1.683-.63 2.53-.195.837-.68 1.6-.906 2.434-.232.853-.515 1.662-.981 2.404-.178.284-.358.568-.545.845-.149.217-.366.403-.455.64-.287.759-.787 1.373-1.23 2.025-.17.25-.374.479-.51.746-.61 1.198-1.465 2.176-2.468 3.041-.305.264-.516.642-.773.964-.66.825-1.462 1.502-2.226 2.22a1.315 1.315 0 0 1-.264.206c-.89.485-1.607 1.212-2.423 1.798a5.54 5.54 0 0 1-.658.42c-1.015.529-2.027 1.066-3.056 1.565-1.071.52-2.131 1.085-3.248 1.476-1.397.487-2.84.846-4.276 1.199-.644.157-1.323.18-1.967-.092-.123-.051-.175-.324-.066-.386.384-.218.755-.532 1.167-.611.957-.184 1.798-.685 2.73-.927.535-.14 1.038-.406 1.565-.584.843-.287 1.663-.598 2.407-1.132.633-.454 1.363-.764 2.024-1.181a95.22 95.22 0 0 0 2.791-1.86c.18-.124.316-.317.473-.478.157-.16.292-.354.474-.475.72-.474 1.324-1.068 1.923-1.691.703-.73 1.398-1.46 2.008-2.273.159-.21.309-.436.501-.609.882-.793 1.417-1.833 1.988-2.853.368-.657.797-1.278 1.188-1.923.274-.452.52-.916.602-1.458.033-.221.126-.436.212-.646a33.582 33.582 0 0 0 1.81-6.088c.374-1.877.417-3.765.541-5.656.096-1.45-.127-2.865-.287-4.293a57.688 57.688 0 0 1-.282-3.404c-.034-.65-.11-1.281-.325-1.897-.123-.357-.193-.733-.287-1.1-.057-.22-.09-.452-.176-.659-.62-1.459-1.225-2.925-1.89-4.362-.268-.575-.676-1.081-1.023-1.617-.103-.159-.248-.296-.317-.466-.65-1.609-1.846-2.832-2.815-4.214-.373-.532-.867-.677-1.462-.56-.145.028-.283.088-.427.125-.48.122-.862-.031-1.192-.407-.333-.377-.58-.726-.482-1.308.134-.803-.207-1.446-.83-1.983-1.673-1.443-3.43-2.747-5.424-3.692-.537-.254-1.057-.551-1.606-.773-.408-.164-.86-.21-1.275-.36-1.433-.517-2.917-.831-4.387-1.204-1.407-.357-2.855-.374-4.28-.571-.47-.065-.961.017-1.442.037-.371.014-.741.056-1.11.048-1.23-.026-2.437.137-3.641.372-.907.176-1.842.225-2.735.454-1.21.31-2.444.58-3.535 1.254-.126.079-.254.164-.392.212-.768.266-1.543.514-2.308.789-.2.072-.384.207-.562.335-.627.455-1.205.989-1.986 1.18a.893.893 0 0 0-.46.299c-.565.725-1.41 1.089-2.057 1.706-.158.15-.365.247-.548.37-.307.205-.656.365-.912.624-.909.921-1.895 1.765-2.714 2.779-.368.454-.787.86-1.112 1.358-.324.501-.731.947-1.103 1.416-.046.059-.094.121-.154.163-.199.136-.298.479-.63.34-.2-.083-.16-.434.195-.726.334-.274.35-.667.447-1.002.07-.245.088-.533.248-.721.554-.65.938-1.424 1.481-2.076a2.58 2.58 0 0 1 .692-.563c.23-.132.45-.202.486-.54.014-.136.22-.287.371-.364.247-.126.448-.259.488-.564.01-.07.052-.186.093-.193.605-.1.763-.641 1.04-1.07.079-.123.21-.217.33-.304 1.784-1.293 3.57-2.592 5.55-3.555 2.008-.975 4.05-1.878 6.227-2.4 1.401-.337 2.8-.716 4.22-.94 2.276-.358 4.57-.365 6.87-.162 1.667.147 3.297.5 4.94.78.182.03.364.075.537.138 1.813.664 3.647 1.276 5.429 2.019a25.57 25.57 0 0 1 4.232 2.23c.558.367 1.061.821 1.596 1.226.327.247.667.476 1 .714.122.086.283.15.356.269.44.719 1.195 1.126 1.684 1.79.61.829 1.367 1.488 2.207 2.047.607.405 1.077.904 1.339 1.612.117.316.31.606.498.888.123.184.271.376.454.488 1.316.809 2.007 2.057 2.425 3.514.082.288.195.572.323.843.242.515.454 1.019.454 1.62 0 .698.462 1.22.94 1.62.835.704 1.15 1.64 1.386 2.65.103.44.266.866.359 1.307.22 1.036.489 2.07.596 3.121.107 1.052.044 2.124.05 3.187 0 .151-.036.302-.055.452l.086.007" mask="url(#b)"/></g><path fill="#FFF" d="M0 32.339l.302-2.133c.07-.488.19-.976.191-1.465.001-.618.118-1.204.285-1.786.444-1.564.725-3.18 1.367-4.681.31-.726.653-1.438 1.001-2.146.078-.158.23-.287.37-.398.15-.12.433.024.415.21-.05.486-.066.985-.197 1.45-.192.691-.51 1.345-.704 2.036a51.223 51.223 0 0 0-.817 3.303c-.186.888-.346 1.79-.417 2.694-.1 1.285-.211 2.584-.129 3.865.124 1.964.412 3.916.624 5.874.117 1.068.59 2.032.837 3.062.114.479.288.943.391 1.423.233 1.083.696 2.076 1.14 3.071.835 1.87 2.106 3.471 3.125 5.229 1.815 2.202 3.568 4.47 5.926 6.113 1.039.724 2.134 1.363 3.182 2.076 1.364.927 2.835 1.618 4.365 2.193.238.091.556.2.652.394.261.537.633.674 1.17.591.47-.072.82.291 1.226.446.059.021.072.27.042.398-.016.066-.214.164-.26.134-.397-.26-.855-.191-1.281-.284-.447-.097-.88-.107-1.254.24-.215.2-.485.18-.737.11a2.497 2.497 0 0 1-.613-.26 24.547 24.547 0 0 0-3.486-1.714c-.331-.134-.705-.36-.879-.655a1.96 1.96 0 0 0-1.108-.886c-1.064-.35-1.855-1.1-2.654-1.817-1.114-.996-2.179-2.054-3.225-3.125-1.13-1.157-1.99-2.541-2.945-3.845-.823-1.122-1.626-2.256-2.232-3.525a5.213 5.213 0 0 1-.37-1.059c-.13-.545-.363-1.071-.604-1.58-.34-.715-.76-1.4-.926-2.183-.189-.893-.523-1.734-.76-2.607-.398-1.459-.59-2.96-.807-4.46-.141-.981-.079-1.961-.187-2.938-.049-.443.04-.902.067-1.354L0 32.34M31.728 66a15.297 15.297 0 0 1-4.347-.904c-.13-.048-.247-.147-.354-.241-.022-.02.014-.17.049-.182a.832.832 0 0 1 .32-.036c.993.062 1.975.317 2.982.217.108-.01.239-.01.328.041.744.433 1.515.169 2.272.091.554-.056 1.091-.14 1.651.01.222.058.512-.022.737-.12.465-.204.943-.174 1.421-.159.137.005.303.07.396.167.09.094.135.264.136.4 0 .08-.112.21-.195.232-.428.121-.86.278-1.297.306-1.365.088-2.733.122-4.099.178"/><path fill="#FFF" d="M23.122 23.485c-.04.29-.186.492-.42.666a.941.941 0 0 1-.749.196c-.213-.032-.382-.106-.513-.285-.13-.18-.128-.363-.098-.578.016-.119.031-.281.143-.479.112-.198.556-.448.569-.544.03-.215-.243-.58-.566-.895-.27-.264-.582-.502-.902-.5a3.15 3.15 0 0 0-.97.172c-.334.107-.624.246-.848.487-.213.229-.331.53-.427.893-.077.29-.165.611-.157.994.007.306.048.644.114 1.014.056.309.074.656.173 1.011.087.306.263.608.385.951.091.26.235.546.36.865.108.282.18.598.294.894.116.297.277.577.382.86.118.32.118.66.198.923.073.28.263.57.353.914.078.299.115.63.186.963.066.311.109.637.153.966.043.322.135.646.142.974.007.328-.113.65-.155.973-.049.37-.051.755-.17 1.114a6.73 6.73 0 0 1-.456 1.032c-.175.328-.418.617-.644.915-.224.297-.449.596-.713.857-.266.26-.53.532-.829.747a5.489 5.489 0 0 1-.88.518c-.304.14-.657.15-.984.244-.322.094-.638.208-.972.262a9.907 9.907 0 0 1-1 .107c-.34.02-.676.028-1.007.017a9.564 9.564 0 0 1-1.007-.08c-.352-.049-.668-.165-.98-.248-.343-.09-.68-.135-.977-.263a6.168 6.168 0 0 1-.912-.46c-.296-.191-.536-.441-.778-.667-.256-.24-.538-.449-.74-.717a6.443 6.443 0 0 1-.538-.889c-.16-.312-.217-.666-.327-.987-.115-.335-.245-.657-.313-.987-.073-.351-.102-.698-.131-1.03-.032-.366-.108-.715-.098-1.035.013-.397.125-.76.18-1.108.065-.391.182-.737.293-1.068.124-.374.214-.737.39-1.039.194-.336.409-.64.65-.896.264-.276.581-.463.879-.654.316-.201.633-.373.966-.49.355-.125.703-.268 1.048-.31.381-.046.752.032 1.085.067.41.043.754.152 1.028.285.357.174.676.32.852.554.243.325.245.702.204.99-.038.265-.104.494-.305.637a.985.985 0 0 1-.708.188c-.39-.058-.629-.627-.72-1.252-.093-.624-.235-.96-.543-.955-.31.006-.689.088-1.075.24a3.544 3.544 0 0 0-.947.569c-.262.217-.458.535-.685.87-.192.282-.41.578-.558.956-.125.322-.205.686-.286 1.085-.07.342-.16.706-.19 1.109-.027.352.024.728.03 1.13.008.337.006.72.09 1.121.074.35.22.698.37 1.06.137.338.258.699.474 1.019.203.301.438.597.72.86.26.242.596.4.932.591.305.173.612.385.986.5.33.103.695.144 1.084.192.344.042.708.12 1.1.111.372-.007.71-.112 1.024-.2a3.62 3.62 0 0 0 .937-.44c.307-.189.566-.412.802-.66.25-.263.53-.494.708-.786.194-.321.32-.668.438-.978.145-.385.171-.754.211-1.037.044-.306.112-.66.167-1.095.04-.32.114-.676.122-1.092.007-.333.044-.703.011-1.11-.027-.338-.14-.695-.206-1.09-.056-.34-.102-.707-.192-1.095-.081-.345-.197-.679-.29-1.02-.091-.342-.116-.704-.214-1.043-.098-.34-.194-.681-.293-1.02-.09-.312-.22-.664-.282-1.06a9.901 9.901 0 0 1-.103-1.098 8.489 8.489 0 0 1 .016-1.104c.031-.37.147-.72.24-1.07.097-.362.211-.702.388-1.014.18-.318.363-.635.642-.872.262-.222.599-.335.963-.458.31-.106.642-.221 1.035-.239a5.604 5.604 0 0 1 1.075.036c.406.06.763.175 1.049.347.336.202.623.472.816.769.21.323.262.722.337 1.074.085.402.109.785.064 1.108M29.919 37.125c1.075.002 1.181.247 1.187.454-.01.207-.372.427-.875.442-.425-.005-.77-.125-1.126-.233-.348-.106-.708-.196-1.08-.422.347-.078.643-.168.938-.213.303-.046.607-.026.956-.028m13.93 10.328c-.017-.309-.004-.671-.086-1.036-.07-.316-.251-.627-.371-.966-.11-.312-.179-.662-.331-.98-.145-.301-.375-.569-.558-.863-.177-.287-.389-.553-.602-.822-.208-.265-.468-.479-.711-.718-.24-.235-.421-.548-.695-.749a6.37 6.37 0 0 0-.874-.518 5.902 5.902 0 0 0-.943-.359c-.312-.098-.636-.202-.977-.246-.322-.042-.62.013-.968.023.466-.151 1.092-.657 1.278-.812.26-.215.59-.354.783-.611.2-.267.284-.614.418-.912.138-.305.285-.609.356-.929.013-.137.104-.273.116-.411.013-.156.02-.322.015-.477-.003-.11-.083-.109-.091-.22-.021-.154.014-.303-.024-.457-.021-.153-.083-.318-.121-.471-.06-.237-.239-.496-.443-.778-.164-.226-.295-.539-.545-.731-.226-.174-.544-.232-.835-.336a2.668 2.668 0 0 0-1.367-.11c-.518.085-.877.28-1.117.717-.145.227-.324.456-.266.695.09.255.301.421.524.57.291.18.636.1 1.031-.187.066-.053.154-.06.219-.113.459-.427.838-.638 1.095-.473.12.082.28.227.385.413.176.253.196.619.258.996.059.362.101.736.063 1.126a4.427 4.427 0 0 1-.245 1.106c-.134.357-.26.735-.494 1.028a2.952 2.952 0 0 1-.875.722c-.307.17-.685.163-1.083.21-.084.002-.173.195-.29.198-.025 0-.025-.045-.05-.043-.313.026-.696.098-1.102.126-.364.026-.755-.087-1.118-.06-.408.03-.799.028-1.111.061-.31.034-.595.173-.86.266-.29.103-.56.233-.793.403a3.405 3.405 0 0 0-.76.681c-.215.27-.43.561-.558.874a3.935 3.935 0 0 0-.236 2.062c.055.341.192.68.345.982.154.303.397.558.651.788.241.217.554.322.886.445.401.145.743.248 1.07.262.426.017.786-.031 1.088-.171.377-.174.709-.398.902-.681.016-.018-.06-.058-.052-.068.096-.14.215-.276.261-.415.172-.487.36-.93.162-1.388-.09-.238-.326-.363-.547-.46a.858.858 0 0 0-.587.027c-.035.001-.049.064-.082.083-.364.148-.58.477-.53 1.077.025.293.138.523.093.697-.044.208-.156.394-.305.467-.015.006-.03.015-.046.017-.383.058-.702-.154-.956-.384a2.355 2.355 0 0 1-.6-.854 3.762 3.762 0 0 1-.232-1.037c-.037-.466.083-.84.24-1.16.18-.364.429-.666.772-.878.25-.156.568-.182.868-.282a6.3 6.3 0 0 1 .878-.218c.304-.054.6-.134.896-.157.322-.024.797-.155 1.279-.176.477-.02.958.033 1.286.044.29.01.629.055.995.16.301.087.65.144.976.3.295.14.564.373.858.571.274.186.596.339.855.578.247.226.464.508.681.784.209.264.418.55.59.86.162.295.286.627.404.965.11.317.21.656.272 1.011.058.33.079.684.089 1.047.01.35-.105.702-.133 1.061-.028.351-.028.705-.093 1.058-.063.347-.191.676-.291 1.019-.098.34-.213.667-.347.997a9.552 9.552 0 0 1-.437.96c-.167.309-.331.617-.533.908-.2.288-.322.648-.558.913-.232.26-.587.395-.855.628-.26.228-.5.482-.793.68a8.313 8.313 0 0 1-.906.515c-.304.154-.585.396-.92.516-.318.114-.693.064-1.038.145-.33.078-.661.168-1.016.212-.336.043-.677.092-1.036.102-.348.01-.693-.01-1.04-.024-.348-.014-.69-.072-1.035-.112-.346-.039-.686-.09-1.026-.156-.344-.067-.7-.063-1.034-.158-.337-.095-.676-.188-1-.314-.327-.126-.637-.294-.949-.451a9.772 9.772 0 0 1-.905-.532c-.295-.19-.531-.455-.804-.68-.269-.222-.61-.365-.854-.621-.241-.253-.422-.567-.635-.854-.208-.28-.432-.554-.61-.866-.173-.303-.292-.64-.434-.975-.135-.32-.194-.67-.3-1.02-.1-.332-.269-.65-.34-1.009-.068-.34-.202-.685-.243-1.052-.037-.346.086-.714.075-1.084-.01-.371-.144-.738-.124-1.097a12.4 12.4 0 0 1 .109-1.096c.054-.367.198-.713.283-1.06.087-.36.227-.695.346-1.03.123-.35.3-.663.452-.985.16-.334.297-.664.485-.965.195-.313.353-.642.574-.918.23-.286.475-.552.73-.795.264-.252.515-.521.801-.724.296-.21.657-.284.973-.439.017-.007-.044.006-.028.016.338.234.709.277.998.403.352.153.65.341.991.388.332.047.68.05 1.064.05.495.013.848-.192 1.144-.345.448-.233.705-.524.715-.876-.01-.36-.228-.691-.81-.86-.309-.087-.722-.112-1.245-.114-.4-.006-.835-.044-1.275.014a8.387 8.387 0 0 0-1.225.258c-.264-.236-.434-.488-.606-.817-.158-.306-.36-.61-.45-.984a7.275 7.275 0 0 1-.174-1.08c-.03-.347.052-.715.056-1.093a5.09 5.09 0 0 1 .095-1.069c.083-.377.164-.726.321-1.027.174-.332.438-.569.68-.814.257-.26.514-.489.817-.658.316-.176.614-.411.945-.497.357-.093.73-.093 1.061-.093.394.001.726.151 1.038.268.354.132.697.254.934.524.228.263.411.597.521.976.095.325.12.703.12 1.106-.004.426-.124.783-.24 1.096-.145.396-.335.707-.595.924-.3.25-.649.338-1.006.342-.42-.004-.956-.017-1.213-.164-.153-.1-.214-.264-.284-.365-.174-.235-.082-.55.274-.974.323-.475.367-.871.14-1.156a.835.835 0 0 0-.536-.394c-.204-.029-.422-.005-.602.138-.38.286-.502.66-.521 1.158 0 .325.09.657.256 1.01.14.298.28.62.596.851.252.184.582.268.975.363.302.074.635.127 1.034.127.38 0 .772-.007 1.126-.169.343-.157.639-.42.903-.722.244-.278.511-.587.644-.983.117-.345.15-.753.152-1.183a3.794 3.794 0 0 0-.14-.981c-.083-.332-.28-.587-.45-.859-.173-.276-.264-.634-.518-.844-.243-.2-.581-.272-.89-.405a4.272 4.272 0 0 0-.92-.266c-.3-.055-.615-.214-.953-.216-.335-.003-.682.174-1.047.264a5.91 5.91 0 0 0-1 .354c-.32.143-.614.34-.92.54-.299.193-.6.378-.87.619-.27.24-.576.445-.802.726-.229.284-.343.643-.512.965-.17.32-.4.616-.497.97a4.52 4.52 0 0 0-.144 1.092c.003.387.069.76.159 1.114.094.368.293.682.468 1.008.176.33.35.65.594.931.241.28.586.557.88.783-.324.144-.776.227-1.093.41-.308.178-.599.407-.895.62-.29.21-.593.42-.868.662-.27.237-.445.585-.697.852-.247.262-.54.486-.766.776-.223.285-.372.626-.57.936-.196.306-.405.602-.573.93-.167.324-.312.658-.447 1-.134.34-.238.69-.34 1.045-.099.351-.239.694-.303 1.06-.063.359-.155.723-.182 1.095-.026.363.107.734.117 1.109.01.37-.064.736-.027 1.087.039.367.055.734.12 1.081.07.363.228.696.326 1.037.1.353.155.716.283 1.045.131.34.375.623.534.94.162.324.294.659.484.958.192.307.317.663.534.944.22.285.549.472.79.731.246.262.42.6.684.835.267.237.545.47.829.681.284.212.61.372.91.557.3.187.625.336.938.496.316.162.625.342.949.477.327.137.688.175 1.02.284.337.11.648.31.986.394.346.085.71.059 1.054.115.35.059.694.13 1.039.159.354.03.705.067 1.05.067.354 0 .7-.105 1.047-.131.354-.025.72.097 1.064.045.351-.051.684-.203 1.024-.28.346-.08.682-.18 1.015-.286.339-.107.678-.205 1-.338.33-.137.606-.375.916-.539.315-.165.67-.248.966-.44.297-.195.542-.461.818-.683.277-.222.533-.46.787-.71.253-.249.603-.408.83-.684.227-.274.39-.607.588-.907.196-.296.44-.573.607-.893.164-.314.203-.697.337-1.034.131-.33.255-.664.356-1.014.098-.34.203-.684.271-1.046.066-.346.132-.7.168-1.066.036-.353-.039-.716-.032-1.085.007-.354.105-.715.084-1.084"/><path fill="#FFF" d="M31.182 14.981c.012-.517.1-.488.239-.985.14-.497.042-.526.181-1.024.139-.495.212-.473.35-.97.14-.497.089-.512.227-1.01.14-.5.163-.492.302-.99.14-.501.189-.487.33-.987.139-.5.05-.527.19-1.027.1-.361.474-.467 1.012-.467.31 0 .61-.04.895.01.302.053.605.102.877.213.279.115.515.317.759.495a2.3 2.3 0 0 1 .678.765c.167.298.261.64.342.98.083.352.178.701.178 1.03 0 .396-.076.768-.168 1.12-.095.367-.171.755-.367 1.076-.187.308-.505.535-.787.801-.286.27-.594.473-.917.651-.33.184-.651.39-1.02.479-.355.084-.734.058-1.123.058-.432 0-.813.022-1.14-.006-.49-.04-.786-.109-1.038-.212m13.132 12.118c-.174 0-.426.166-.541.607-.052.194.016.466.016.815 0 .311-.129.585-.235.83-.11.257-.244.516-.476.702-.238.199-.53.328-.835.42-.277.083-.585.07-.92.063-.38-.009-.74.044-1.055-.03-.361-.085-.647-.313-.938-.485-.302-.179-.603-.35-.842-.625a4.684 4.684 0 0 1-.627-.869c-.155-.295-.243-.65-.373-1.009a12.75 12.75 0 0 1-.335-1.02c-.09-.327-.149-.681-.23-1.05-.076-.332-.202-.672-.274-1.04-.065-.336-.099-.693-.163-1.06-.06-.34-.2-.678-.262-1.043-.057-.342-.014-.713-.074-1.079-.056-.344-.095-.701-.154-1.066-.056-.346-.188-.687-.248-1.052-.058-.345-.05-.711-.11-1.073-.06-.348-.155-.697-.22-1.06-.06-.349-.09-.68-.156-1.042.33-.063.61-.18.92-.275.32-.098.662-.133.96-.267.305-.136.589-.323.87-.496.283-.172.578-.34.838-.55.27-.218.51-.459.72-.69.232-.259.416-.546.574-.82a3.93 3.93 0 0 0 .39-.925c.086-.319.045-.66.045-.999 0-.352.073-.706-.01-1.024-.087-.33-.282-.625-.459-.911-.172-.278-.416-.502-.676-.73-.237-.21-.522-.355-.832-.516-.277-.145-.561-.298-.897-.4-.287-.084-.598-.204-.951-.292-.298-.076-.617-.166-.965-.232-.306-.057-.624-.175-.97-.217-.314-.04-.65-.05-.999-.071-.318-.02-.654-.021-1-.021-.328 0-.662-.013-.998-.01-.33.003-.664.075-1 .083-.332.008-.67-.038-1.003-.023-.335.015-.668.068-1.001.091-.335.024-.675-.008-1.006.026-.337.034-.669.098-.997.146-.337.05-.654.187-.978.252-.334.066-.659.14-.976.226-.332.09-.68.1-.989.214-.323.118-.6.328-.892.475a6.376 6.376 0 0 0-.87.5c-.3.217-.535.486-.784.723a5.744 5.744 0 0 0-.688.804c-.21.293-.371.595-.513.927-.136.324-.26.646-.328 1.013-.062.34-.196.689-.196 1.07 0 .471.063.923.18 1.321.129.431.407.778.677 1.12.28.34.581.614.968.778.358.151.763.284 1.223.284.31 0 .597-.1.869-.19.275-.09.52-.245.765-.435.237-.183.375-.405.493-.65.115-.242.258-.489.258-.797 0-.155-.055-.587-.311-.875-.172-.193-.473-.249-.847-.249-.351 0-.659-.002-.904.116-.309.15-.493.422-.663.64-.316.409-.019.628-.415.862-.383-.13-.673-.409-.88-.634-.239-.259-.343-.542-.343-.93 0-.357.013-.699.127-1.032.11-.32.32-.587.534-.884.193-.266.34-.601.615-.85.242-.218.532-.416.838-.62.273-.182.612-.282.935-.453.323-.172.592-.44.91-.58.334-.147.696-.196 1.024-.31.343-.117.672-.253 1.01-.333.351-.084.71-.064 1.055-.107.355-.043.7-.2 1.05-.2.297 0 .555.119.773.24.227.129.433.315.579.57-.006.12-.113.5-.284 1.116-.085.305-.146.682-.27 1.108-.096.327-.257.674-.376 1.073-.101.338-.176.714-.294 1.105-.104.343-.309.678-.425 1.061-.107.348-.114.746-.231 1.127a.866.866 0 0 1-.067.193c-.072.224-.202.557-.334.985-.092.295-.202.628-.315.994-.097.312-.231.635-.34.984-.1.322-.143.675-.25 1.017-.103.327-.317.624-.424.96-.105.331-.2.669-.307 1-.109.337-.112.707-.218 1.033-.114.343-.3.65-.409.97-.117.35-.166.706-.273 1.011-.13.369-.347.66-.455.94-.192.5-.264.88-.352.976-.118.172-.568.357-1.038.409-.353.035-.681.003-.933-.273-.084-.069-.134-.175-.185-.244-.251-.293-.48-.26-.614-.156-.353.328-.082.832.001.936.221.242.58.351.907.443.325.092.672.09.981.082.438-.018.922-.303 1.344-.613.23-.164.633-.35 1.014-.597.34-.222.684-.477 1.01-.582.42-.134.793-.2 1.115-.277.444-.106.81-.14 1.128-.181.436-.058.783-.098 1.127-.144.218-.035.325-.046.392-.133.068-.12.089-.473.055-.611-.017-.052-.076-.166-.16-.2-.303-.12-1.246.096-1.448.061-.403-.085-.692-.796-.692-1.158 0-.119.22-.533.377-1.048a82.7 82.7 0 0 1 .329-1.058c.133-.424.164-.843.236-1.083.092-.3.188-.64.299-.995.1-.322.28-.634.385-.97.104-.336.153-.691.254-1.012.11-.356.222-.713.316-1.012.319-.052.702.053 1.14.123.487.103.785.194.953.4.031.368.115.716.147 1.07.032.368.045.731.078 1.084.034.37.042.732.077 1.085.037.37.105.727.145 1.08.04.368.129.722.173 1.072.046.37.083.73.134 1.077.052.37.016.742.074 1.087.061.369.184.714.254 1.056.074.369.145.725.23 1.062.09.368.247.697.351 1.027.115.36.22.701.352 1.019.144.348.273.68.444.978.186.324.423.584.643.849.233.28.477.518.753.733.277.216.541.446.867.597.308.142.623.327.98.412.324.078.69.01 1.057.042.333.027.679.078 1.05.069.37-.01.733-.006 1.076-.07.361-.066.68-.248 1.01-.38.334-.134.695-.214.994-.42.32-.219.598-.466.817-.731.238-.29.375-.637.494-.98.115-.337.191-.695.191-1.08 0-.14.003-.516-.17-.796-.123-.196-.342-.419-.697-.419"/><path fill="#FFF" d="M48.28 39.497c-.33 0-.613.033-.794-.086-.22-.148-.25-.425-.25-.742 0-.128-.04-.524.075-1.12.062-.313.142-.682.232-1.101.07-.337.2-.693.288-1.09.077-.344.188-.704.276-1.09.08-.35.133-.722.221-1.101.083-.355.15-.726.24-1.104.086-.358.176-.724.268-1.1.088-.349.188-.693.275-1.039.088-.349.131-.708.218-1.054.086-.347.248-.673.333-1.018.087-.346.196-.684.282-1.03.085-.344.104-.707.19-1.053.084-.342.152-.691.24-1.038.086-.345.194-.688.284-1.038.078-.368.255-.625.49-.736.4 0 .759.085 1.088.14a4.15 4.15 0 0 1 1.036.317c.36.161.687.319.937.561.268.263.516.552.678.885.158.327.248.701.324 1.075.073.356.142.732.158 1.111.016.37-.006.75-.025 1.122-.021.378-.105.748-.145 1.11-.038.34-.076.682-.134 1.027-.056.337-.062.69-.137 1.029-.076.336-.27.643-.363.975-.094.333-.147.678-.258 1.003-.113.329-.227.655-.358.97-.132.324-.245.653-.395.957-.155.314-.34.607-.512.897-.179.301-.375.584-.573.856-.206.284-.463.513-.69.759-.237.258-.431.55-.69.758-.272.218-.587.353-.88.509a4.35 4.35 0 0 1-.935.369c-.324.083-.65.11-.993.11m-3.937-2.023c-.083.349-.086.678-.196.924-.157.35-.414.531-.615.674-.361.256-.609.464-1.27.464-.515 0-.738.183-.797.428-.072.301.122.632.594.63.092 0 .517.03 1.092.03.327 0 .703-.033 1.093-.033.363 0 .739-.018 1.102-.018.394 0 .773.003 1.102.003.644 0 .548.013 1.095.013.347 0 .683-.064 1.017-.094.345-.033.693-.004 1.023-.067.339-.067.68-.126 1.003-.223.33-.101.629-.285.942-.416.317-.133.616-.298.915-.46.302-.164.604-.324.887-.516.284-.193.55-.408.814-.627.265-.221.554-.414.797-.658.242-.245.483-.497.702-.763.22-.266.384-.579.579-.864.196-.285.344-.6.514-.9.17-.302.352-.594.497-.91.144-.315.25-.645.367-.97.118-.328.237-.652.326-.987.09-.336.214-.664.276-1.006.061-.343.098-.69.13-1.036.03-.348-.016-.697-.016-1.044 0-.383.08-.765.018-1.126-.064-.376-.209-.73-.33-1.077a7.098 7.098 0 0 0-.453-1.021c-.178-.336-.404-.632-.62-.924a7.664 7.664 0 0 0-.706-.857 6.934 6.934 0 0 0-.835-.726c-.318-.228-.617-.465-.929-.603-.255-.113-.608-.15-.976-.256-.3-.087-.612-.232-.955-.311-.317-.074-.651-.141-.984-.207-.333-.065-.676-.08-1-.134-.348-.057-.68-.134-.991-.178-.373-.051-.71-.106-.993-.13-.316-.03-.66-.08-1.025-.101-.328-.018-.675.035-1.03.03-.336-.005-.68-.028-1.03-.017-.34.013-.681.088-1.026.12-.342.033-.686.052-1.025.11-.342.057-.677.14-1.007.228-.336.092-.686.136-1 .264-.325.133-.618.328-.907.506-.312.192-.587.4-.824.638-.251.254-.425.552-.59.859-.164.303-.34.608-.42.962-.073.33-.142.684-.142 1.058 0 .364.1.706.186 1.02.092.343.216.67.453.914.295.304.623.527.949.656.383.153.784.186 1.132.172a2.199 2.199 0 0 0 1.076-.331c.45-.29.571-.819.519-1.298-.026-.243-.236-.878-.964-.878-.438 0-.759.098-.995.294-.446.368-.595.94-.595.94-.282-.093-.44-.331-.592-.516-.194-.237-.28-.478-.28-.696 0-.32.077-.625.233-.951.133-.278.237-.613.48-.884.206-.229.456-.464.74-.682.247-.19.562-.323.868-.501.288-.168.615-.287.956-.401.323-.108.664-.168 1.009-.236.342-.066.685-.11 1.026-.142.36-.033.706-.067 1.035-.068.384-.002.733.021 1.034.053.543.055.955.12 1.02.232-.08.529-.125.523-.246 1.043-.12.52-.187.504-.308 1.023-.12.522-.107.525-.228 1.045-.122.523-.099.529-.22 1.051-.12.523-.126.522-.247 1.043-.12.523-.14.518-.262 1.04-.12.523-.123.523-.244 1.046-.122.523-.138.52-.259 1.042-.122.523-.09.53-.212 1.054-.12.522-.125.52-.245 1.042-.122.523-.135.52-.257 1.045-.121.524-.123.523-.245 1.049-.123.525-.05.545-.187 1.067-.138.523-.2.506-.323 1.032"/></g></svg>