<svg xmlns="http://www.w3.org/2000/svg" xmlns:xlink="http://www.w3.org/1999/xlink" width="66" height="65" viewBox="0 0 66 65"><defs><path id="a" d="M.242.883h59.572v63.446H.242z"/></defs><g fill="none" fill-rule="evenodd"><g transform="translate(6 -.883)"><mask id="b" fill="#fff"><use xlink:href="#a"/></mask><path fill="#FFBB24" d="M59.814 32.582c-.035.586-.044 1.175-.112 1.758a131.675 131.675 0 0 1-.56 4.38c-.087.577-.267 1.146-.454 1.702-.272.805-.43 1.634-.628 2.456-.195.812-.679 1.553-.905 2.362-.23.828-.514 1.614-.979 2.334-.177.276-.357.551-.544.82-.148.211-.365.391-.454.621-.286.737-.785 1.333-1.228 1.966-.169.242-.373.465-.509.724-.608 1.163-1.46 2.112-2.462 2.952-.305.256-.515.623-.772.936-.659.801-1.459 1.458-2.22 2.154-.082.075-.169.15-.265.201-.888.47-1.603 1.176-2.418 1.745a5.551 5.551 0 0 1-.656.407c-1.013.514-2.023 1.035-3.05 1.52-1.069.504-2.127 1.053-3.24 1.432-1.395.473-2.835.822-4.269 1.164-.642.153-1.32.175-1.963-.089-.122-.05-.174-.315-.065-.375.383-.21.753-.516 1.164-.593.955-.178 1.795-.665 2.725-.9.534-.136 1.035-.394 1.561-.567.842-.278 1.66-.58 2.402-1.098.632-.44 1.361-.742 2.02-1.147.942-.58 1.864-1.193 2.786-1.806.18-.12.315-.307.472-.463.156-.156.291-.344.473-.46.718-.46 1.321-1.038 1.92-1.643.7-.708 1.394-1.416 2.003-2.206.158-.204.308-.423.5-.59.88-.77 1.414-1.78 1.984-2.77.367-.638.795-1.24 1.185-1.867.274-.439.52-.889.601-1.415.033-.215.126-.424.211-.627a31.93 31.93 0 0 0 1.807-5.91c.373-1.822.416-3.654.54-5.49.095-1.407-.127-2.78-.287-4.167a54.498 54.498 0 0 1-.28-3.304c-.035-.632-.11-1.244-.325-1.842-.123-.346-.193-.71-.287-1.067-.057-.214-.089-.439-.176-.64-.618-1.416-1.222-2.839-1.886-4.234-.267-.558-.674-1.05-1.02-1.57-.103-.154-.248-.287-.317-.452-.648-1.562-1.842-2.749-2.809-4.09-.372-.517-.865-.658-1.459-.545-.145.028-.283.086-.426.122-.479.12-.86-.03-1.19-.395-.332-.366-.579-.705-.48-1.27.133-.779-.207-1.403-.829-1.924-1.67-1.4-3.423-2.667-5.413-3.584-.536-.247-1.055-.535-1.603-.75-.407-.16-.858-.205-1.272-.35-1.43-.502-2.91-.807-4.378-1.169-1.404-.346-2.849-.363-4.27-.554-.47-.063-.96.017-1.44.036-.37.014-.74.054-1.109.047-1.226-.026-2.43.133-3.633.361-.905.171-1.838.218-2.729.44-1.207.301-2.439.563-3.528 1.218-.126.076-.253.16-.39.205-.768.26-1.54.5-2.304.766-.2.07-.384.201-.56.325-.627.442-1.204.96-1.983 1.146a.894.894 0 0 0-.46.29c-.563.704-1.407 1.057-2.052 1.656-.158.146-.364.24-.547.36-.306.198-.655.354-.91.605-.907.894-1.89 1.713-2.709 2.697-.367.441-.785.835-1.109 1.32-.324.485-.73.918-1.1 1.373-.047.057-.095.118-.155.158-.198.132-.297.465-.628.331-.2-.08-.16-.422.194-.705.333-.266.35-.648.446-.973.071-.238.088-.517.248-.7.553-.63.936-1.382 1.478-2.015.188-.22.437-.404.69-.546.23-.129.45-.197.485-.525.014-.132.22-.278.371-.353.246-.122.447-.25.487-.547.01-.068.051-.18.092-.188.604-.097.762-.622 1.038-1.039.08-.119.21-.21.33-.294 1.78-1.256 3.562-2.516 5.538-3.45 2.004-.948 4.042-1.824 6.214-2.33 1.4-.328 2.794-.696 4.211-.913 2.272-.348 4.562-.355 6.857-.158 1.663.143 3.29.485 4.93.757.181.03.363.073.536.135 1.81.644 3.64 1.238 5.417 1.96a25.773 25.773 0 0 1 4.224 2.164c.557.356 1.06.797 1.593 1.19.326.24.665.462.998.693.121.084.282.145.355.261.44.698 1.192 1.093 1.68 1.738.61.804 1.365 1.444 2.203 1.987.606.393 1.075.877 1.336 1.564.117.307.31.59.497.862.123.18.271.365.453.474 1.313.785 2.003 1.997 2.42 3.411.082.28.195.555.323.818.241.5.453.99.453 1.573 0 .677.461 1.184.937 1.573.834.683 1.15 1.592 1.384 2.571.103.427.265.841.358 1.27.22 1.005.488 2.01.595 3.03.107 1.02.044 2.06.05 3.092 0 .147-.036.293-.055.44l.086.006" mask="url(#b)"/></g><path fill="#FFBB24" d="M0 31.38l.302-2.07c.069-.474.19-.948.191-1.422.001-.6.118-1.169.284-1.734.444-1.518.725-3.086 1.367-4.543.31-.705.652-1.396 1-2.083.078-.153.229-.278.369-.386.15-.116.433.023.415.203-.049.472-.066.957-.196 1.408-.192.671-.511 1.306-.704 1.976a48.536 48.536 0 0 0-.816 3.206c-.186.862-.346 1.737-.417 2.615-.1 1.247-.211 2.508-.129 3.751.124 1.906.412 3.801.624 5.701.116 1.037.59 1.972.836 2.972.114.465.288.915.391 1.381.233 1.051.695 2.015 1.139 2.981.834 1.815 2.105 3.37 3.123 5.075 1.814 2.137 3.566 4.34 5.922 5.933 1.038.703 2.133 1.323 3.18 2.015 1.363.9 2.833 1.57 4.362 2.13.238.087.556.192.652.381.261.521.632.654 1.169.574.47-.07.819.282 1.225.432.059.021.072.263.042.387-.016.064-.214.16-.26.13-.396-.252-.854-.186-1.28-.276-.447-.094-.88-.104-1.253.233-.215.195-.485.174-.737.106a2.536 2.536 0 0 1-.612-.25 24.84 24.84 0 0 0-3.484-1.665c-.331-.13-.704-.349-.878-.636a1.95 1.95 0 0 0-1.108-.86c-1.063-.339-1.853-1.068-2.652-1.763-1.113-.967-2.177-1.994-3.223-3.033-1.129-1.123-1.988-2.467-2.943-3.732-.822-1.089-1.625-2.19-2.23-3.42a4.963 4.963 0 0 1-.371-1.029c-.13-.529-.362-1.04-.603-1.534-.34-.694-.76-1.359-.925-2.119-.189-.866-.523-1.683-.76-2.53-.397-1.416-.59-2.873-.806-4.328-.141-.953-.079-1.904-.187-2.852-.049-.43.04-.876.067-1.314L0 31.381M31.649 64.117a15.593 15.593 0 0 1-4.325-.875 1.197 1.197 0 0 1-.353-.233c-.021-.02.014-.164.049-.176a.85.85 0 0 1 .318-.035c.989.06 1.966.307 2.967.21.108-.01.238-.01.327.04.74.419 1.507.163 2.26.088.55-.054 1.086-.136 1.643.009.22.057.509-.021.733-.116.463-.197.938-.168 1.414-.153a.63.63 0 0 1 .394.16c.089.092.134.257.135.389 0 .077-.111.202-.194.224-.426.117-.855.269-1.29.296-1.358.085-2.72.118-4.078.172"/><path fill="#FFBB24" d="M23.176 22.774c-.041.28-.186.478-.42.647a.963.963 0 0 1-.75.19c-.213-.03-.382-.102-.513-.276-.131-.175-.13-.353-.098-.562.016-.116.03-.274.143-.466.112-.193.556-.436.569-.53.03-.208-.243-.563-.566-.87-.271-.256-.583-.487-.903-.486a3.236 3.236 0 0 0-.971.168c-.334.104-.624.239-.85.473-.212.223-.33.515-.426.869-.077.282-.165.594-.157.966.007.298.048.626.114.986.056.3.074.638.173.983.087.298.263.59.385.925.092.252.236.53.36.84.109.275.18.582.295.87.116.289.277.56.382.837.118.31.118.64.198.897.074.272.264.553.354.888.078.29.115.613.186.937.066.302.109.619.153.939.043.313.135.628.142.947.007.319-.113.63-.155.946-.05.36-.051.734-.171 1.083a6.45 6.45 0 0 1-.455 1.004c-.176.318-.42.599-.645.889-.224.289-.45.58-.714.833-.266.253-.53.518-.83.727a5.532 5.532 0 0 1-.88.503c-.304.137-.658.146-.985.238-.322.09-.638.202-.973.254a11.328 11.328 0 0 1-2.008.121 9.847 9.847 0 0 1-1.008-.078c-.352-.047-.67-.16-.981-.241-.343-.088-.68-.131-.978-.256a6.246 6.246 0 0 1-.913-.447c-.296-.186-.536-.43-.778-.648-.256-.233-.54-.437-.74-.698a6.232 6.232 0 0 1-.54-.864c-.16-.303-.216-.648-.327-.96-.115-.325-.245-.638-.313-.96-.073-.341-.102-.678-.131-1-.032-.357-.108-.696-.098-1.007.013-.386.125-.74.18-1.077.065-.381.182-.717.293-1.04.125-.363.215-.715.39-1.01.195-.326.41-.622.652-.87.263-.27.58-.45.879-.636.316-.196.634-.363.967-.477.355-.121.703-.26 1.049-.301.38-.045.752.03 1.086.065.41.042.754.148 1.028.277.358.169.677.312.853.539.243.316.245.682.204.962-.038.258-.104.48-.305.62-.201.138-.451.22-.71.183-.388-.057-.628-.61-.72-1.218-.092-.606-.234-.933-.543-.928-.31.006-.69.085-1.075.233a3.57 3.57 0 0 0-.948.553c-.262.21-.46.52-.686.846-.192.274-.41.562-.558.93-.125.313-.205.667-.287 1.055-.07.332-.16.686-.19 1.078-.027.342.024.708.03 1.098.008.328.006.7.09 1.09.074.34.22.679.37 1.032.138.328.259.679.475.99.203.293.438.58.72.836.26.236.597.39.933.575.306.168.613.374.987.487.33.099.696.139 1.085.186.344.04.709.116 1.102.108.37-.007.709-.11 1.024-.195.352-.096.653-.256.938-.428.307-.183.566-.4.802-.641.25-.256.53-.481.709-.765.194-.312.32-.65.438-.95.145-.375.172-.734.212-1.01.044-.296.112-.641.167-1.063.04-.311.114-.658.122-1.062.007-.324.044-.684.01-1.08-.026-.328-.14-.675-.205-1.06-.056-.33-.102-.687-.193-1.064-.081-.335-.197-.66-.29-.992-.091-.332-.116-.684-.214-1.014-.098-.331-.194-.662-.293-.992-.091-.303-.22-.645-.282-1.03a9.36 9.36 0 0 1-.104-1.068 8.02 8.02 0 0 1 .016-1.073c.032-.36.148-.701.24-1.041.098-.352.212-.682.389-.986.18-.31.363-.617.643-.847.262-.216.599-.326.963-.446.31-.103.643-.215 1.036-.232a5.772 5.772 0 0 1 1.076.035c.406.058.764.17 1.05.337.336.197.623.459.817.748.21.314.262.702.337 1.044.085.39.109.764.064 1.078M29.86 36.01c1.073.002 1.178.24 1.184.441-.01.201-.37.415-.873.43-.424-.005-.77-.122-1.124-.227-.348-.103-.707-.19-1.078-.41.346-.076.641-.163.936-.207.302-.045.607-.025.954-.027m13.907 10.035c-.017-.3-.005-.652-.087-1.006-.07-.307-.25-.61-.37-.939-.11-.303-.178-.643-.33-.952-.145-.293-.374-.553-.557-.839-.177-.279-.389-.537-.601-.799-.209-.257-.468-.465-.71-.697-.24-.229-.42-.533-.694-.728a6.399 6.399 0 0 0-.873-.503 5.992 5.992 0 0 0-.94-.349c-.313-.095-.636-.196-.977-.239-.32-.04-.619.012-.966.022.465-.147 1.09-.638 1.276-.789.26-.209.589-.344.782-.594.2-.259.283-.596.417-.886.137-.296.284-.59.355-.902.014-.134.105-.266.117-.4.013-.15.019-.313.015-.463-.003-.108-.084-.106-.091-.214-.021-.15.014-.294-.024-.444-.022-.149-.084-.309-.122-.458-.06-.23-.238-.482-.442-.756-.163-.219-.294-.523-.544-.71-.225-.169-.542-.225-.834-.326a2.732 2.732 0 0 0-1.364-.107c-.517.082-.875.271-1.114.696-.145.221-.325.443-.267.676.092.247.302.41.523.553.291.176.636.098 1.03-.18.066-.053.154-.059.218-.11.459-.416.837-.62 1.093-.46.12.08.28.22.386.401.175.246.195.601.257.967.058.352.1.716.063 1.095a4.204 4.204 0 0 1-.245 1.074c-.133.347-.26.714-.493 1a2.93 2.93 0 0 1-.873.701c-.308.165-.684.158-1.081.203-.084.003-.173.19-.29.193-.026.001-.026-.044-.05-.042-.313.026-.695.096-1.1.123-.364.025-.754-.085-1.117-.059-.407.03-.797.028-1.109.06-.31.033-.594.168-.858.258-.288.1-.56.227-.791.392a3.37 3.37 0 0 0-.759.662c-.215.261-.43.545-.558.85a3.74 3.74 0 0 0-.235 2.002c.055.332.191.662.345.955.154.294.396.542.65.765.24.211.552.313.883.433.401.141.742.241 1.069.254.426.017.784-.03 1.086-.166.377-.169.707-.387.9-.662.017-.017-.059-.056-.051-.066.096-.136.215-.268.26-.403.172-.473.36-.903.162-1.349-.09-.23-.326-.352-.547-.446a.879.879 0 0 0-.585.026c-.035.001-.048.062-.081.08-.364.144-.58.464-.53 1.047.026.284.138.508.093.677-.044.202-.155.383-.304.454-.016.006-.03.014-.047.016-.381.057-.7-.149-.953-.373a2.29 2.29 0 0 1-.6-.83 3.573 3.573 0 0 1-.232-1.007 2.057 2.057 0 0 1 .24-1.128c.18-.353.428-.647.77-.853.25-.15.567-.176.867-.274.286-.092.574-.158.877-.21.303-.054.599-.132.895-.154.32-.023.794-.15 1.276-.17.477-.02.956.031 1.284.042.288.01.628.053.992.156.301.084.65.14.975.291.294.136.563.362.856.555.275.18.596.33.855.561.245.22.462.494.68.762.207.257.416.534.587.835.163.287.287.61.404.938.11.308.21.638.271.983.058.32.08.664.09 1.017.01.341-.105.682-.133 1.031-.028.341-.028.685-.093 1.028-.063.337-.19.657-.29.99-.099.33-.212.648-.346.97a9.164 9.164 0 0 1-.436.931c-.167.301-.331.6-.533.883-.2.28-.322.63-.558.887-.23.253-.586.384-.852.61-.26.222-.5.47-.792.661a8.36 8.36 0 0 1-.904.501c-.304.15-.584.384-.919.501-.317.111-.691.062-1.036.141-.33.076-.66.163-1.015.206-.334.042-.675.09-1.034.1-.347.01-.692-.01-1.039-.024s-.688-.07-1.032-.109a12.978 12.978 0 0 1-1.024-.152c-.343-.065-.698-.06-1.032-.153-.337-.093-.675-.183-.998-.305-.328-.123-.636-.286-.947-.439a9.82 9.82 0 0 1-.904-.517c-.294-.185-.53-.442-.803-.66-.268-.216-.608-.355-.852-.604-.241-.246-.421-.55-.634-.83-.207-.27-.431-.538-.61-.84-.171-.295-.29-.623-.433-.948-.134-.31-.194-.652-.3-.992-.1-.322-.267-.63-.338-.98-.069-.33-.203-.666-.242-1.022-.038-.336.084-.694.073-1.053-.01-.36-.143-.718-.123-1.066.02-.36.058-.72.108-1.065.055-.357.198-.693.284-1.03.087-.35.227-.676.345-1.002.122-.34.3-.643.451-.956.16-.325.297-.645.485-.938.193-.304.351-.624.572-.892.23-.278.474-.536.729-.772.264-.245.514-.507.8-.704.294-.204.655-.276.97-.426.018-.007-.043.005-.027.015.338.227.708.27.997.392.35.148.648.331.989.377.33.045.678.05 1.062.05.494.011.846-.188 1.142-.337.447-.226.704-.509.713-.85-.01-.35-.227-.673-.809-.836-.308-.085-.72-.11-1.242-.112-.4-.005-.833-.042-1.272.014a8.572 8.572 0 0 0-1.224.251c-.264-.23-.433-.474-.605-.794-.157-.297-.36-.593-.45-.956a6.896 6.896 0 0 1-.172-1.049c-.03-.338.052-.695.055-1.063.003-.38.024-.719.096-1.038.082-.367.163-.706.32-.998.174-.323.436-.553.678-.79.256-.254.514-.476.816-.64.316-.172.613-.4.944-.484.356-.09.728-.09 1.059-.09.393.001.724.147 1.035.26.354.13.697.247.933.51.227.255.41.58.52.948.094.316.12.683.12 1.075-.005.414-.123.76-.24 1.065-.145.384-.334.687-.593.897-.3.244-.648.33-1.005.333-.418-.004-.954-.017-1.21-.16-.153-.096-.214-.256-.284-.354-.174-.229-.082-.535.273-.947.323-.46.367-.846.14-1.123a.833.833 0 0 0-.535-.383c-.203-.028-.421-.005-.602.134-.378.278-.5.641-.52 1.126 0 .315.091.638.256.98.14.29.28.604.596.828.25.18.58.26.973.353.302.071.634.123 1.032.123.38 0 .77-.007 1.123-.164.344-.153.638-.408.902-.702.244-.27.51-.57.644-.955.115-.335.148-.732.15-1.149a3.596 3.596 0 0 0-.14-.954c-.081-.322-.279-.57-.449-.834-.172-.269-.263-.616-.517-.82-.242-.194-.58-.265-.889-.394a4.353 4.353 0 0 0-.916-.258c-.3-.054-.614-.208-.953-.21-.334-.003-.68.17-1.045.256a6.007 6.007 0 0 0-.998.344c-.32.14-.612.331-.918.524-.299.188-.598.368-.868.602-.27.233-.576.433-.802.706-.227.276-.341.625-.51.937-.17.312-.4.6-.497.943a4.283 4.283 0 0 0-.143 1.061c.003.376.069.738.159 1.082.093.358.293.663.466.98.177.32.35.632.594.905.24.271.584.541.878.76-.323.14-.774.221-1.09.398-.308.174-.599.396-.895.603-.29.204-.591.408-.866.643-.27.231-.445.57-.696.828-.247.255-.538.473-.764.754-.223.277-.372.61-.57.91-.195.297-.404.585-.572.903-.166.315-.31.64-.445.973-.134.33-.239.67-.34 1.015-.099.341-.239.674-.303 1.03-.063.348-.154.702-.181 1.064-.026.352.107.713.117 1.077.01.36-.064.715-.027 1.056.039.357.055.714.12 1.051.07.352.227.676.325 1.007.1.343.155.696.283 1.016.13.331.373.605.532.913.163.315.294.64.483.931.192.298.317.644.534.917.22.277.547.46.788.711.245.254.42.582.683.811.267.23.544.457.828.662.284.206.608.361.908.541.3.182.625.326.936.482.316.157.625.332.947.463.328.133.688.17 1.02.276.335.108.646.302.983.383.346.083.71.057 1.053.112.35.057.692.126 1.037.154.354.03.704.065 1.047.065.355.001.7-.102 1.047-.127.353-.024.718.094 1.062.044.35-.05.681-.197 1.021-.273a12.9 12.9 0 0 0 1.014-.277c.337-.104.677-.199.998-.329.328-.133.604-.364.914-.523.315-.16.67-.24.965-.428.297-.189.54-.448.816-.663.276-.216.532-.448.785-.69.254-.242.602-.397.83-.665.226-.266.389-.59.587-.88.194-.289.438-.558.605-.869.163-.305.203-.677.337-1.005.13-.32.255-.645.355-.985.098-.33.203-.665.27-1.016.066-.337.133-.68.169-1.036.035-.343-.04-.696-.032-1.054.006-.344.104-.695.084-1.054"/><path fill="#FFBB24" d="M31.152 14.523c.012-.501.1-.473.238-.955.14-.482.042-.51.181-.992.138-.48.211-.46.35-.94.138-.482.087-.497.225-.98.14-.484.162-.477.301-.96.14-.485.188-.471.328-.956s.05-.511.19-.996c.1-.35.473-.452 1.01-.452.308 0 .607-.04.891.01.301.05.603.098.874.206.278.11.514.307.757.48.274.188.503.44.676.74.166.29.26.62.341.95.083.342.177.68.177 1 0 .383-.076.744-.167 1.085-.095.356-.17.732-.366 1.043-.187.299-.504.519-.785.777a4.379 4.379 0 0 1-.914.63c-.329.179-.649.379-1.017.465-.353.082-.73.056-1.119.056-.43 0-.81.022-1.137-.005-.487-.04-.783-.106-1.034-.206M44.243 26.27c-.174 0-.425.16-.54.588-.052.188.016.452.016.79 0 .302-.128.567-.234.805-.11.249-.243.5-.475.68-.237.193-.528.318-.832.408-.276.08-.583.067-.918.06-.378-.008-.736.043-1.05-.03-.36-.081-.646-.302-.936-.47-.3-.172-.6-.34-.839-.605a4.547 4.547 0 0 1-.625-.842c-.155-.286-.242-.63-.372-.978a12.12 12.12 0 0 1-.334-.988c-.09-.318-.148-.661-.23-1.018-.075-.323-.2-.652-.272-1.008-.065-.327-.099-.673-.163-1.028-.06-.33-.2-.658-.26-1.011-.058-.332-.015-.692-.075-1.046-.056-.334-.094-.68-.153-1.034-.056-.335-.188-.666-.248-1.02-.057-.334-.049-.69-.11-1.04-.059-.337-.154-.675-.218-1.027-.06-.338-.09-.66-.156-1.01.33-.061.608-.175.917-.267.32-.095.66-.13.958-.26.303-.13.586-.312.867-.48.281-.166.576-.328.835-.532.27-.212.51-.445.718-.67.231-.25.414-.53.572-.795.17-.286.303-.59.388-.896.086-.31.045-.64.045-.968 0-.341.073-.685-.01-.993-.086-.32-.28-.606-.457-.883-.172-.27-.415-.487-.674-.708-.236-.203-.52-.344-.829-.5-.277-.14-.56-.29-.895-.387-.286-.082-.596-.198-.948-.284-.297-.073-.615-.16-.962-.224-.305-.056-.622-.17-.967-.211-.313-.038-.648-.048-.995-.07-.317-.018-.652-.02-.998-.02-.326 0-.659-.012-.994-.01-.33.004-.662.074-.997.082-.33.008-.667-.037-1-.023-.334.015-.666.066-.998.089-.334.023-.673-.008-1.003.025-.335.033-.666.095-.993.14-.336.049-.652.183-.975.246-.333.064-.657.136-.973.219-.33.087-.679.097-.986.207-.322.115-.599.318-.889.46a6.404 6.404 0 0 0-.868.486c-.298.21-.533.47-.78.7a5.613 5.613 0 0 0-.687.78c-.209.284-.37.576-.51.898a4.604 4.604 0 0 0-.328.982c-.062.329-.196.668-.196 1.037 0 .457.063.895.18 1.28.128.419.405.755.675 1.086.28.33.58.596.965.755.356.146.76.275 1.22.275.307 0 .594-.097.865-.184.274-.088.518-.238.763-.422.236-.177.373-.392.491-.63.115-.235.257-.474.257-.773 0-.15-.055-.57-.31-.848-.17-.187-.47-.241-.844-.241-.35 0-.657-.002-.9.112-.309.145-.493.409-.662.62-.315.397-.019.609-.414.836-.382-.125-.67-.396-.877-.614-.238-.251-.342-.526-.342-.901 0-.347.013-.678.127-1.001.11-.31.318-.57.532-.857.192-.258.338-.583.613-.824a7.36 7.36 0 0 1 .835-.601c.272-.176.61-.273.932-.44.322-.166.59-.425.908-.561.332-.143.693-.19 1.02-.3.342-.114.67-.246 1.007-.324.35-.081.707-.062 1.052-.103.354-.042.697-.194 1.047-.194.296 0 .553.115.77.233.226.124.432.305.577.552-.006.116-.112.484-.283 1.082-.085.295-.145.66-.269 1.074-.096.317-.256.653-.375 1.04-.1.328-.175.692-.293 1.07-.104.334-.308.658-.424 1.03-.106.337-.113.723-.23 1.092a.824.824 0 0 1-.067.187c-.07.217-.2.54-.333.955-.09.286-.2.609-.314.963-.096.303-.23.616-.338.954-.1.312-.143.655-.25.986-.102.317-.316.605-.422.93-.105.322-.2.649-.306.97-.109.327-.112.685-.218 1-.113.334-.299.632-.407.94-.117.34-.166.686-.273.982-.129.357-.346.64-.453.91-.192.486-.263.854-.35.947-.119.167-.567.346-1.036.396-.352.034-.679.003-.93-.264-.084-.067-.133-.17-.184-.237-.25-.284-.478-.251-.612-.151-.352.318-.082.807.001.907.22.235.578.34.904.43.324.089.67.087.978.079.436-.017.92-.293 1.34-.594.228-.16.63-.34 1.01-.58.34-.214.682-.461 1.008-.563.417-.13.79-.193 1.111-.268.442-.103.807-.136 1.124-.176.435-.056.781-.095 1.123-.14.218-.033.324-.044.391-.128.068-.117.09-.46.055-.593-.017-.05-.076-.16-.16-.193-.3-.117-1.242.093-1.443.059-.402-.083-.69-.772-.69-1.123 0-.115.22-.516.376-1.016.101-.326.218-.687.328-1.025.133-.411.164-.817.235-1.05.092-.29.188-.62.298-.965.1-.312.28-.614.384-.94.104-.326.153-.67.253-.981l.315-.981c.318-.05.7.052 1.136.119.486.1.783.188.951.389.031.356.114.693.146 1.036.032.357.045.709.078 1.05.034.359.042.71.077 1.053.037.358.105.705.144 1.046.041.358.13.7.173 1.04.046.359.083.707.133 1.044.052.358.016.719.074 1.054.061.357.184.692.253 1.023.074.358.145.703.23 1.03.09.356.246.675.35.995.114.349.218.68.35.988.144.337.273.66.443.948.185.314.422.566.641.823.232.272.476.502.751.71.276.21.54.433.864.579.307.138.621.317.976.4.324.075.688.01 1.055.04.331.027.676.076 1.046.067.37-.01.731-.006 1.073-.067.36-.065.678-.241 1.006-.37.334-.13.693-.206.992-.407.318-.211.596-.451.814-.708.237-.281.374-.617.492-.95.115-.326.191-.673.191-1.046 0-.137.003-.501-.17-.772-.122-.19-.34-.406-.694-.406"/><path fill="#FFBB24" d="M48.131 38.377c-.329 0-.61.032-.79-.084-.22-.143-.249-.413-.249-.721 0-.124-.04-.51.075-1.09.061-.303.141-.662.23-1.07.07-.327.2-.673.287-1.06.076-.334.187-.684.274-1.06.08-.34.132-.701.22-1.07.082-.345.15-.706.24-1.073.084-.348.174-.704.265-1.07.088-.34.187-.674.274-1.01.087-.34.13-.688.216-1.025.086-.337.247-.654.332-.99.086-.336.194-.665.28-1.001.085-.335.103-.688.19-1.024.083-.333.15-.672.237-1.01.086-.335.194-.668.283-1.01.078-.356.254-.606.488-.714.397 0 .754.082 1.081.136.394.065.728.174 1.031.308.358.157.683.31.931.546.267.255.514.536.675.86.157.318.246.682.322 1.045a6.8 6.8 0 0 1 .157 1.08c.016.36-.006.73-.025 1.092-.02.367-.104.727-.144 1.079-.038.33-.076.663-.133.998-.056.328-.062.672-.137 1-.075.328-.268.626-.36.949-.094.324-.147.659-.257.975-.112.32-.226.637-.356.944-.13.314-.244.634-.393.93-.154.305-.338.59-.509.872-.178.293-.373.568-.57.832-.205.277-.46.499-.686.738-.236.25-.429.535-.687.737-.27.212-.583.344-.875.495a4.384 4.384 0 0 1-.929.359 3.997 3.997 0 0 1-.988.107m-3.915-1.967c-.083.339-.086.659-.195.898-.156.34-.412.517-.612.656-.359.249-.605.45-1.262.45-.513 0-.734.179-.793.417-.072.293.121.615.591.613.091 0 .514.029 1.086.029.325 0 .7-.032 1.087-.032.361 0 .734-.018 1.095-.018.392 0 .77.003 1.096.003.641 0 .545.013 1.09.013.344 0 .68-.062 1.011-.092.343-.032.69-.003 1.017-.065.337-.065.676-.122.997-.217.328-.098.626-.277.937-.404.316-.13.613-.29.91-.448.301-.16.601-.314.882-.501.283-.188.548-.397.81-.61.263-.215.551-.402.792-.64s.481-.483.7-.741c.217-.26.38-.563.574-.84.195-.278.342-.583.511-.876.17-.293.351-.577.495-.884.143-.307.248-.627.365-.944.117-.318.235-.633.324-.96.09-.326.213-.645.274-.977.061-.334.098-.672.13-1.008.03-.338-.016-.677-.016-1.015 0-.372.08-.744.018-1.095-.064-.365-.208-.71-.328-1.047a6.826 6.826 0 0 0-.45-.993c-.178-.326-.403-.614-.618-.898a7.49 7.49 0 0 0-.702-.833 6.853 6.853 0 0 0-.83-.706c-.316-.222-.614-.452-.924-.586-.254-.11-.605-.146-.97-.25-.298-.084-.609-.225-.95-.302a30.676 30.676 0 0 0-.979-.201c-.33-.063-.672-.077-.995-.13-.345-.056-.675-.131-.985-.173-.37-.05-.706-.103-.987-.127-.315-.03-.657-.078-1.02-.098-.326-.018-.67.034-1.024.029-.334-.005-.677-.027-1.025-.016-.338.012-.677.085-1.02.117-.34.03-.682.05-1.019.106-.34.056-.673.136-1 .222-.336.089-.684.132-.996.257-.323.129-.614.319-.902.492-.31.186-.584.389-.819.62-.25.247-.423.537-.587.835-.163.295-.339.59-.417.936-.073.32-.142.665-.142 1.028 0 .354.1.687.185.992.092.334.215.65.451.889.293.295.62.512.943.638.381.148.78.18 1.126.167.46-.017.842-.18 1.07-.322.447-.282.568-.796.516-1.262-.026-.236-.234-.854-.958-.854-.436 0-.755.096-.99.286-.443.358-.592.915-.592.915-.28-.091-.438-.323-.588-.503-.193-.23-.279-.464-.279-.676 0-.311.077-.608.232-.925.132-.27.236-.596.478-.86.204-.222.453-.451.735-.663.246-.185.56-.314.863-.487.287-.163.612-.28.951-.39.321-.105.66-.163 1.003-.23.341-.063.682-.106 1.021-.137.357-.032.702-.065 1.03-.066.381-.002.728.02 1.027.05.54.055.95.117 1.015.227-.08.514-.125.508-.245 1.014s-.186.49-.306.995c-.12.507-.107.51-.227 1.016-.12.508-.098.514-.219 1.022-.12.508-.125.507-.245 1.014-.12.508-.14.503-.26 1.01-.12.509-.123.509-.244 1.018-.12.508-.137.505-.257 1.013-.12.509-.09.516-.21 1.025-.12.507-.125.506-.245 1.013-.12.509-.134.506-.255 1.016-.12.51-.123.509-.244 1.02-.122.51-.049.53-.186 1.038s-.198.492-.32 1.003"/></g></svg>